<svg width="49" height="48" viewBox="0 0 49 48" fill="none" xmlns="http://www.w3.org/2000/svg">
<path d="M24.75 48C38.0048 48 48.75 37.2548 48.75 24C48.75 10.7452 38.0048 0 24.75 0C11.4952 0 0.75 10.7452 0.75 24C0.75 37.2548 11.4952 48 24.75 48Z" fill="#EAD7FF"/>
<path d="M41.018 41.64C36.5918 38.0034 30.926 35.8203 24.7504 35.8203C18.5741 35.8203 12.9079 38.0038 8.48145 41.641C8.48145 41.641 14.2917 48.0001 24.7504 48.0001C35.209 48.0001 41.018 41.64 41.018 41.64Z" fill="#53288C"/>
<path d="M28.2809 27.3003L36.3598 27.4247L32.1767 14.5016L25.3637 14.3848H24.9746L18.1616 14.5016L13.9785 27.4247L22.0574 27.3003H28.2809Z" stroke="#AF61F2" stroke-width="7.43968" stroke-miterlimit="10"/>
</svg>
