<svg width="32" height="32" viewBox="0 0 32 32" fill="none" xmlns="http://www.w3.org/2000/svg">
<g id="bi:check">
<path id="Vector" d="M21.9413 9.94095C22.223 9.67273 22.5979 9.52444 22.9869 9.52739C23.3759 9.53033 23.7485 9.68427 24.0262 9.95673C24.3038 10.2292 24.4648 10.5988 24.4751 10.9877C24.4853 11.3766 24.3442 11.7542 24.0813 12.0409L16.1013 22.021C15.9641 22.1687 15.7985 22.2874 15.6144 22.3697C15.4303 22.452 15.2314 22.4964 15.0298 22.5001C14.8282 22.5038 14.6278 22.4669 14.4408 22.3914C14.2538 22.316 14.0839 22.2036 13.9413 22.0609L8.64929 16.7689C8.50192 16.6316 8.38371 16.466 8.30173 16.282C8.21975 16.098 8.17566 15.8994 8.17211 15.698C8.16855 15.4966 8.2056 15.2965 8.28105 15.1098C8.35649 14.923 8.46878 14.7533 8.61122 14.6109C8.75365 14.4684 8.92332 14.3561 9.1101 14.2807C9.29687 14.2053 9.49693 14.1682 9.69834 14.1718C9.89974 14.1753 10.0984 14.2194 10.2824 14.3014C10.4664 14.3834 10.632 14.5016 10.7693 14.6489L14.9573 18.8349L21.9033 9.98495L21.9413 9.94095Z" fill="white"/>
</g>
</svg>
