<svg width="36" height="36" viewBox="0 0 36 36" fill="none" xmlns="http://www.w3.org/2000/svg">
<path d="M36.0003 18.0001C36.0003 27.9436 27.94 36.0002 18.0002 36.0002C8.06034 36.0002 0 27.9436 0 18.0001C0 8.05653 8.06034 0 18.0002 0C27.94 0 36.0003 8.0603 36.0003 18.0001Z" fill="white"/>
<path d="M25.3896 19.9251V19.9628C25.3896 20.9459 24.5911 21.7443 23.608 21.7443C22.6249 21.7443 21.8264 22.5428 21.8264 23.5259V23.6954C21.8264 24.6784 21.0279 25.4769 20.0449 25.4769H16.1239C15.1409 25.4769 14.3424 24.6784 14.3424 23.6954V23.5259C14.3424 22.5428 13.5439 21.7443 12.5608 21.7443H12.3913C11.4083 21.7443 10.6098 20.9459 10.6098 19.9628V16.0419C10.6098 15.0588 11.4083 14.2603 12.3913 14.2603H12.5608C13.5439 14.2603 14.3424 13.4618 14.3424 12.4788V12.3093C14.3424 11.3262 15.1409 10.5277 16.1239 10.5277H21.9018C22.8848 10.5277 23.6833 11.3262 23.6833 12.3093V12.4976C23.6833 13.4807 22.8848 14.2792 21.9018 14.2792H16.1465C15.1635 14.2792 14.365 15.0777 14.365 16.0607V19.9402C14.365 20.9233 15.1635 21.7217 16.1465 21.7217H20.026C21.0091 21.7217 21.8076 20.9233 21.8076 19.9402V19.9251C21.8076 18.9421 22.6061 18.1436 23.5892 18.1436H23.6118C24.5948 18.1436 25.3933 18.9421 25.3933 19.9251H25.3896Z" fill="black"/>
</svg>
