<svg width="20" height="21" viewBox="0 0 20 21" fill="none" xmlns="http://www.w3.org/2000/svg">
<g clip-path="url(#clip0_847_43107)">
<path d="M18.5324 12.8533V12.8455C18.5311 12.8397 18.5292 12.8339 18.5269 12.8283C18.4751 12.6868 18.4148 12.5486 18.3465 12.4143L15.0988 5.03302C15.0675 4.96192 15.0233 4.89728 14.9683 4.8424C14.7362 4.61019 14.4606 4.42599 14.1572 4.30032C13.8539 4.17464 13.5287 4.10996 13.2004 4.10996C12.872 4.10996 12.5469 4.17464 12.2435 4.30032C11.9402 4.42599 11.6646 4.61019 11.4324 4.8424C11.3156 4.95932 11.2499 5.11775 11.2496 5.28302V7.23615H8.7496V5.28302C8.74966 5.20092 8.73355 5.11961 8.70218 5.04374C8.67081 4.96787 8.62481 4.89892 8.56679 4.84083C8.33463 4.60863 8.05901 4.42443 7.75566 4.29875C7.45231 4.17308 7.12717 4.1084 6.79882 4.1084C6.47046 4.1084 6.14533 4.17308 5.84198 4.29875C5.53862 4.42443 5.263 4.60863 5.03085 4.84083C4.97589 4.89572 4.93165 4.96036 4.90038 5.03146L1.65585 12.4143C1.5875 12.5486 1.52724 12.6868 1.47538 12.8283C1.47321 12.8337 1.47138 12.8392 1.46991 12.8447C1.46991 12.8447 1.46991 12.851 1.46991 12.8533C1.14724 13.7856 1.20497 14.8075 1.63058 15.6976C2.05619 16.5876 2.81539 17.2741 3.74366 17.6082C4.67192 17.9423 5.69446 17.8972 6.58966 17.4826C7.48487 17.0679 8.18063 16.3173 8.52616 15.3932C8.6783 14.9781 8.75502 14.5392 8.75272 14.0971V8.48615H11.2527V14.0979C11.2504 14.5399 11.3271 14.9789 11.4793 15.394C11.8248 16.318 12.5206 17.0687 13.4158 17.4833C14.311 17.898 15.3335 17.9431 16.2618 17.609C17.1901 17.2749 17.9493 16.5884 18.3749 15.6984C18.8005 14.8083 18.8582 13.7864 18.5355 12.8541L18.5324 12.8533ZM7.34882 14.9627C7.11802 15.5785 6.65387 16.0786 6.05693 16.3546C5.45999 16.6306 4.77835 16.6602 4.15971 16.4371C3.54106 16.214 3.03524 15.7561 2.75185 15.1627C2.46845 14.5692 2.43031 13.888 2.64569 13.2666L2.7871 12.944C3.047 12.4499 3.46477 12.0571 3.97384 11.8281C4.48291 11.599 5.05399 11.5469 5.59609 11.6801C6.13819 11.8133 6.62012 12.1241 6.96509 12.563C7.31006 13.0018 7.49822 13.5435 7.4996 14.1018V14.1111C7.49955 14.4027 7.44852 14.6919 7.34882 14.9658V14.9627ZM15.859 16.4604C15.4811 16.5987 15.0754 16.6438 14.6763 16.5917C14.2773 16.5397 13.8967 16.3921 13.5669 16.1615C13.2371 15.9308 12.9679 15.624 12.7821 15.2671C12.5962 14.9101 12.4993 14.5136 12.4996 14.1111V14.1026C12.5017 13.5446 12.6903 13.0034 13.0355 12.565C13.3808 12.1267 13.8627 11.8164 14.4046 11.6836C14.9465 11.5509 15.5173 11.6032 16.0261 11.8323C16.5348 12.0614 16.9523 12.4541 17.2121 12.9479L17.3535 13.2705C17.5758 13.8918 17.5434 14.5758 17.2635 15.1734C16.9835 15.7709 16.4786 16.2335 15.859 16.4604Z" fill="#8C8A94"/>
</g>
<defs>
<clipPath id="clip0_847_43107">
<rect width="20" height="20" fill="white" transform="translate(0 0.986328)"/>
</clipPath>
</defs>
</svg>
