<svg width="20" height="21" viewBox="0 0 20 21" fill="none" xmlns="http://www.w3.org/2000/svg">
<g clip-path="url(#clip0_847_43081)">
<path d="M19 11C19 15.9717 14.9699 19.9999 10 19.9999C5.03013 19.9999 1 15.9717 1 11C1 6.02823 5.03013 2 10 2C14.9699 2 19 6.03011 19 11Z" fill="#8C8A94"/>
<path d="M13.6945 11.9618V11.9807C13.6945 12.4722 13.2953 12.8714 12.8037 12.8714C12.3122 12.8714 11.913 13.2707 11.913 13.7622V13.847C11.913 14.3385 11.5137 14.7377 11.0222 14.7377H9.06175C8.57022 14.7377 8.17098 14.3385 8.17098 13.847V13.7622C8.17098 13.2707 7.77173 12.8714 7.28021 12.8714H7.19546C6.70393 12.8714 6.30469 12.4722 6.30469 11.9807V10.0202C6.30469 9.52871 6.70393 9.12946 7.19546 9.12946H7.28021C7.77173 9.12946 8.17098 8.73022 8.17098 8.2387V8.15395C8.17098 7.66243 8.57022 7.26318 9.06175 7.26318H11.9506C12.4422 7.26318 12.8414 7.66243 12.8414 8.15395V8.24811C12.8414 8.73964 12.4422 9.13888 11.9506 9.13888H9.07305C8.58152 9.13888 8.18228 9.53812 8.18228 10.0296V11.9694C8.18228 12.4609 8.58152 12.8601 9.07305 12.8601H11.0128C11.5043 12.8601 11.9036 12.4609 11.9036 11.9694V11.9618C11.9036 11.4703 12.3028 11.0711 12.7943 11.0711H12.8056C13.2972 11.0711 13.6964 11.4703 13.6964 11.9618H13.6945Z" fill="#161236"/>
</g>
<defs>
<clipPath id="clip0_847_43081">
<rect width="20" height="20" fill="white" transform="translate(0 0.986328)"/>
</clipPath>
</defs>
</svg>
