<svg width="22" height="22" viewBox="0 0 22 22" fill="none" xmlns="http://www.w3.org/2000/svg">
<g clip-path="url(#clip0_847_43324)">
<path d="M1.22772 18.3313H20.7775C21.4496 18.3313 21.9994 17.7815 21.9994 17.1095C21.9994 16.4374 21.4496 15.8876 20.7775 15.8876H1.22772C0.555698 15.8876 0.00585938 16.4374 0.00585938 17.1095C0.00585938 17.7815 0.555698 18.3313 1.22772 18.3313ZM1.22772 12.222H20.7775C21.4496 12.222 21.9994 11.6722 21.9994 11.0001C21.9994 10.3281 21.4496 9.77827 20.7775 9.77827H1.22772C0.555698 9.77827 0.00585938 10.3281 0.00585938 11.0001C0.00585938 11.6722 0.555698 12.222 1.22772 12.222ZM0.00585938 4.89081C0.00585938 5.56283 0.555698 6.11267 1.22772 6.11267H20.7775C21.4496 6.11267 21.9994 5.56283 21.9994 4.89081C21.9994 4.21878 21.4496 3.66895 20.7775 3.66895H1.22772C0.555698 3.66895 0.00585938 4.21878 0.00585938 4.89081Z" fill="white"/>
</g>
<defs>
<clipPath id="clip0_847_43324">
<rect width="22" height="22" fill="white" transform="translate(0.00292969)"/>
</clipPath>
</defs>
</svg>
