<svg width="20" height="20" viewBox="0 0 20 20" fill="none" xmlns="http://www.w3.org/2000/svg">
<g clip-path="url(#clip0_847_39505)">
<path d="M18.75 9.6875V15C18.75 15.3315 18.6183 15.6495 18.3839 15.8839C18.1495 16.1183 17.8315 16.25 17.5 16.25H2.5C2.16848 16.25 1.85054 16.1183 1.61612 15.8839C1.3817 15.6495 1.25 15.3315 1.25 15V9.6875C1.25 9.60462 1.28292 9.52513 1.34153 9.46653C1.40013 9.40792 1.47962 9.375 1.5625 9.375H4.375V14.375C4.37481 14.4607 4.39224 14.5455 4.42621 14.6241C4.46017 14.7028 4.50995 14.7736 4.57245 14.8323C4.63494 14.8909 4.70882 14.936 4.78949 14.9649C4.87017 14.9937 4.95591 15.0057 5.04141 15C5.2024 14.9862 5.35215 14.9118 5.46046 14.7919C5.56877 14.672 5.62757 14.5155 5.625 14.3539V9.375H8.75V10.9375C8.75 11.0204 8.78292 11.0999 8.84153 11.1585C8.90013 11.2171 8.97962 11.25 9.0625 11.25H10.9375C11.0204 11.25 11.0999 11.2171 11.1585 11.1585C11.2171 11.0999 11.25 11.0204 11.25 10.9375V9.375H14.375V14.375C14.3748 14.4607 14.3922 14.5455 14.4262 14.6241C14.4602 14.7028 14.51 14.7736 14.5724 14.8323C14.6349 14.8909 14.7088 14.936 14.7895 14.9649C14.8702 14.9937 14.9559 15.0057 15.0414 15C15.2021 14.9862 15.3517 14.912 15.4599 14.7925C15.5682 14.6729 15.6272 14.5168 15.625 14.3555V9.375H18.4375C18.5204 9.375 18.5999 9.40792 18.6585 9.46653C18.7171 9.52513 18.75 9.60462 18.75 9.6875ZM14.375 3.125H5.625C4.46468 3.125 3.35188 3.58594 2.53141 4.40641C1.71094 5.22688 1.25 6.33968 1.25 7.5V7.8125C1.25 7.89538 1.28292 7.97487 1.34153 8.03347C1.40013 8.09208 1.47962 8.125 1.5625 8.125H4.375V5.02109C4.37243 4.85953 4.43123 4.70301 4.53954 4.5831C4.64785 4.46319 4.7976 4.38882 4.95859 4.375C5.04409 4.36932 5.12983 4.38129 5.21051 4.41014C5.29118 4.439 5.36506 4.48414 5.42755 4.54275C5.49005 4.60136 5.53983 4.6722 5.57379 4.75086C5.60776 4.82952 5.62519 4.91432 5.625 5V8.125H8.75V7.1875C8.75 7.10462 8.78292 7.02513 8.84153 6.96653C8.90013 6.90792 8.97962 6.875 9.0625 6.875H10.9375C11.0204 6.875 11.0999 6.90792 11.1585 6.96653C11.2171 7.02513 11.25 7.10462 11.25 7.1875V8.125H14.375V5.02109C14.3724 4.85953 14.4312 4.70301 14.5395 4.5831C14.6478 4.46319 14.7976 4.38882 14.9586 4.375C15.0441 4.36932 15.1298 4.38129 15.2105 4.41014C15.2912 4.439 15.3651 4.48414 15.4276 4.54275C15.49 4.60136 15.5398 4.6722 15.5738 4.75086C15.6078 4.82952 15.6252 4.91432 15.625 5V8.125H18.4375C18.5204 8.125 18.5999 8.09208 18.6585 8.03347C18.7171 7.97487 18.75 7.89538 18.75 7.8125V7.5C18.75 6.33968 18.2891 5.22688 17.4686 4.40641C16.6481 3.58594 15.5353 3.125 14.375 3.125Z" fill="#8C8A94"/>
</g>
<defs>
<clipPath id="clip0_847_39505">
<rect width="20" height="20" fill="white"/>
</clipPath>
</defs>
</svg>
