<svg width="30" height="31" viewBox="0 0 30 31" fill="none" xmlns="http://www.w3.org/2000/svg">
<path d="M30.0061 15.48C30.0061 23.6546 23.3797 30.278 15.2081 30.278C7.03658 30.278 0.410156 23.6546 0.410156 15.48C0.410156 7.30533 7.03658 0.682007 15.2081 0.682007C23.3797 0.682007 30.0061 7.30843 30.0061 15.48Z" fill="white"/>
<path d="M21.2833 17.0625V17.0934C21.2833 17.9016 20.6269 18.558 19.8187 18.558C19.0105 18.558 18.3541 19.2145 18.3541 20.0227V20.162C18.3541 20.9702 17.6976 21.6266 16.8894 21.6266H13.666C12.8579 21.6266 12.2014 20.9702 12.2014 20.162V20.0227C12.2014 19.2145 11.545 18.558 10.7368 18.558H10.5974C9.78926 18.558 9.13281 17.9016 9.13281 17.0934V13.87C9.13281 13.0618 9.78926 12.4054 10.5974 12.4054H10.7368C11.545 12.4054 12.2014 11.7489 12.2014 10.9408V10.8014C12.2014 9.99324 12.8579 9.33679 13.666 9.33679H18.416C19.2242 9.33679 19.8806 9.99324 19.8806 10.8014V10.9562C19.8806 11.7644 19.2242 12.4209 18.416 12.4209H13.6846C12.8764 12.4209 12.22 13.0773 12.22 13.8855V17.0748C12.22 17.883 12.8764 18.5395 13.6846 18.5395H16.874C17.6821 18.5395 18.3386 17.883 18.3386 17.0748V17.0625C18.3386 16.2543 18.995 15.5978 19.8032 15.5978H19.8218C20.63 15.5978 21.2864 16.2543 21.2864 17.0625H21.2833Z" fill="black"/>
</svg>
