<svg width="419" height="141" viewBox="0 0 419 141" fill="none" xmlns="http://www.w3.org/2000/svg">
<g clip-path="url(#clip0_74_1706)">
<path d="M138.383 70.1792C138.383 108.848 107.398 140.179 69.189 140.179C30.9796 140.179 -0.00488281 108.848 -0.00488281 70.1792C-0.00488281 31.51 30.9796 0.179199 69.189 0.179199C107.398 0.179199 138.383 31.5247 138.383 70.1792Z" fill="white"/>
<path d="M97.5973 77.6647V77.8112C97.5973 81.6341 94.5278 84.7394 90.7488 84.7394C86.9699 84.7394 83.9004 87.8446 83.9004 91.6676V92.3267C83.9004 96.1497 80.8309 99.255 77.0519 99.255H61.9796C58.2006 99.255 55.1311 96.1497 55.1311 92.3267V91.6676C55.1311 87.8446 52.0616 84.7394 48.2827 84.7394H47.6312C43.8522 84.7394 40.7827 81.6341 40.7827 77.8112V62.5632C40.7827 58.7402 43.8522 55.635 47.6312 55.635H48.2827C52.0616 55.635 55.1311 52.5297 55.1311 48.7067V48.0476C55.1311 44.2246 58.2006 41.1194 61.9796 41.1194H84.19C87.9689 41.1194 91.0384 44.2246 91.0384 48.0476V48.78C91.0384 52.603 87.9689 55.7082 84.19 55.7082H62.0664C58.2875 55.7082 55.218 58.8135 55.218 62.6364V77.7233C55.218 81.5462 58.2875 84.6515 62.0664 84.6515H76.9795C80.7585 84.6515 83.828 81.5462 83.828 77.7233V77.6647C83.828 73.8417 86.8975 70.7365 90.6764 70.7365H90.7633C94.5422 70.7365 97.6117 73.8417 97.6117 77.6647H97.5973Z" fill="#1E1E1E"/>
<path d="M157.451 70.1507C157.451 56.4114 166.283 46.041 179.922 46.041C194.4 46.041 200.641 55.9573 201.814 64.1745H194.994C193.633 57.6711 189.347 51.7535 179.864 51.7535C171.032 51.7535 164.212 58.3302 164.212 70.1507C164.212 81.9711 171.032 88.5478 179.864 88.5478C189.347 88.5478 193.763 82.6303 195.066 76.0682H201.958C200.988 84.2122 194.618 94.3335 179.878 94.3335C166.572 94.3335 157.465 84.4172 157.465 70.1507" fill="white"/>
<path d="M210.184 60.82H216.091V66.928C217.452 64.1743 220.71 60.4832 226.806 60.4832H227.718V66.6644H226.096C219.016 66.6644 216.294 70.8682 216.294 77.313V93.352H210.184V60.82Z" fill="white"/>
<path d="M256.171 73.8264C255.91 67.5134 251.682 64.6864 247.078 64.6864C241.692 64.6864 238.304 67.7038 237.595 73.8264H256.171ZM231.296 77.1807C231.296 66.7957 237.276 59.8381 247.078 59.8381C256.88 59.8381 263.251 67.528 262.599 78.5575H237.406C237.595 85.266 241.041 89.2648 246.948 89.2648C252.146 89.2648 254.549 86.5111 255.78 83.2886H262.02C261.05 87.5657 257.083 94.3328 247.078 94.3328C237.073 94.3328 231.296 87.4339 231.296 77.1807Z" fill="white"/>
<path d="M285.656 89.2062C292.027 89.2062 296.443 84.4751 296.443 77.0488C296.443 69.6226 292.027 64.9647 285.656 64.9647C279.286 64.9647 275 69.6958 275 77.0488C275 84.4019 279.155 89.2062 285.656 89.2062ZM268.76 77.0488C268.76 67.1325 275 59.8381 284.541 59.8381C290.84 59.8381 294.604 62.8555 296.168 65.0966V60.8195H302.075V93.3368H296.168V88.6057C295.458 89.7921 291.752 94.3181 284.599 94.3181C275.058 94.3181 268.745 87.2288 268.745 77.0342" fill="white"/>
<path d="M314.691 83.2884V65.5504H308.841V60.8193H314.691V52.6021H320.728V60.8193H328.388V65.5504H320.728V83.4934C320.728 86.9795 322.422 88.0927 325.405 88.0927H328.388V93.3512H323.523C317.876 93.3512 314.691 89.8065 314.691 83.303" fill="white"/>
<path d="M350.597 89.2062C357.228 89.2062 361.384 84.021 361.384 76.9903C361.384 69.9595 357.286 64.9061 350.597 64.9061C343.908 64.9061 339.81 69.8423 339.81 76.9903C339.81 84.1382 343.966 89.2062 350.597 89.2062ZM333.584 77.0488C333.584 66.8689 340.795 59.8381 350.597 59.8381C360.399 59.8381 367.609 66.8689 367.609 77.0488C367.609 87.2288 360.399 94.3328 350.597 94.3328C340.795 94.3328 333.584 87.2434 333.584 77.0488Z" fill="white"/>
<path d="M413.147 60.8196L405.488 88.4885L398.857 60.8196H392.11L385.811 88.4885L378.08 60.8196H372.042L381.641 93.3515H389.576L395.555 67.5281L401.521 93.3515H409.325L418.997 60.8196H413.147Z" fill="white"/>
</g>
<defs>
<clipPath id="clip0_74_1706">
<rect width="419" height="140" fill="white" transform="translate(0 0.179199)"/>
</clipPath>
</defs>
</svg>
