<svg width="422" height="382" viewBox="0 0 422 382" style="box-shadow: -5.21px -5.21px 74.45px 0px rgba(1, 3, 20, 0.32);" fill="none" xmlns="http://www.w3.org/2000/svg">
<g style="mix-blend-mode:overlay">
<path d="M495.072 979.682L233.666 810.733C191.015 783.167 165.257 735.85 165.257 685.067V409.052C165.257 358.473 190.81 311.317 233.183 283.699L387.315 183.24C420.299 161.742 462.777 161.402 496.101 182.369C559.454 222.23 558.844 314.782 494.97 353.805L464.403 372.48C427.096 395.272 404.574 436.048 405.148 479.762L409.916 842.825C410.533 889.775 433.045 933.741 470.776 961.687L495.072 979.682ZM135.341 625.452C135.341 678.655 76.4271 710.735 31.7376 681.868C12.5854 669.496 1.01775 648.253 1.01775 625.452V304.883C1.01775 253.935 26.942 206.488 69.8168 178.966L329.42 12.3214C377.658 -18.6438 441.053 15.9941 441.053 73.3159C441.053 97.9101 428.581 120.826 407.929 134.18L204.064 266C161.216 293.705 135.341 341.249 135.341 392.274V625.452ZM813.715 364.954C768.9 393.948 709.775 361.78 709.775 308.404V256.445C709.775 223.747 693.194 193.28 665.737 175.525L606.474 137.202C585.712 123.776 573.175 100.739 573.175 76.0153C573.175 18.2816 637.119 -16.5206 685.602 14.8255L782.48 77.461C821.136 102.454 844.481 145.346 844.481 191.378V291.763V308.404C844.481 331.252 832.898 352.542 813.715 364.954Z" stroke="url(#paint0_linear_74_1658)" stroke-width="0.744481"/>
</g>
<defs>
<linearGradient id="paint0_linear_74_1658" x1="392.092" y1="330.881" x2="371.33" y2="56.2123" gradientUnits="userSpaceOnUse">
<stop stop-color="white" stop-opacity="0.48"/>
<stop offset="1" stop-color="white"/>
</linearGradient>
</defs>
</svg>
