<svg width="1393" height="873" viewBox="0 0 1393 873" fill="none" xmlns="http://www.w3.org/2000/svg">
<g style="mix-blend-mode:overlay">
<path d="M672.169 1251.19L230.645 965.828C188.03 938.286 162.295 891.009 162.295 840.269V327.223C162.295 276.687 187.825 229.572 230.162 201.978L507.458 21.2425C556.349 -10.6233 619.313 -11.1274 668.707 19.9515L679.953 27.0272C773.858 86.1123 772.954 223.298 678.277 281.139L603.597 326.764C558.25 354.468 530.874 404.033 531.572 457.169L539.741 1079.26C540.359 1126.25 562.889 1170.25 600.652 1198.22L672.169 1251.19ZM116.37 704.37C116.37 786.359 25.5791 835.797 -43.291 791.31C-72.8062 772.245 -90.6328 739.507 -90.6328 704.37V166.439C-90.6328 115.534 -64.7307 68.1277 -21.8925 40.6291L415.137 -239.909C489.473 -287.626 587.165 -234.249 587.165 -145.916C587.165 -108.016 567.946 -72.7023 536.119 -52.1235L185.152 174.812C142.267 202.542 116.37 250.126 116.37 301.194V704.37Z" stroke="url(#paint0_linear_74_1659)"/>
</g>
<g style="mix-blend-mode:overlay" opacity="0.32">
<path d="M685.072 1260.12L230.373 966.248C187.616 938.613 161.795 891.179 161.795 840.269V327.223C161.795 276.518 187.411 229.246 229.889 201.559L507.185 20.8236C556.24 -11.1487 619.414 -11.6545 668.973 19.5283L680.219 26.604C774.439 85.8867 773.531 223.531 678.538 281.566L603.858 327.191C558.661 354.803 531.376 404.203 532.072 457.163L540.241 1079.25C540.856 1126.08 563.312 1169.94 600.95 1197.82L685.072 1260.12ZM116.87 704.37C116.87 786.755 25.6405 836.432 -43.5623 791.73C-73.22 772.573 -91.1328 739.677 -91.1328 704.37V166.439C-91.1328 115.364 -65.1441 67.799 -22.1626 40.2083L414.867 -240.329C489.536 -288.26 587.665 -234.645 587.665 -145.916C587.665 -107.847 568.36 -72.3746 536.391 -51.7037L185.423 175.232C142.681 202.869 116.87 250.295 116.87 301.194V704.37Z" fill="url(#paint1_linear_74_1659)"/>
</g>
<defs>
<linearGradient id="paint0_linear_74_1659" x1="450.333" y1="390.319" x2="848.774" y2="488.304" gradientUnits="userSpaceOnUse">
<stop stop-color="white"/>
<stop offset="0.23224" stop-color="white" stop-opacity="0"/>
<stop offset="0.306772" stop-color="white" stop-opacity="0"/>
<stop offset="1" stop-color="white"/>
</linearGradient>
<linearGradient id="paint1_linear_74_1659" x1="239.222" y1="508.535" x2="1322.48" y2="486.191" gradientUnits="userSpaceOnUse">
<stop stop-color="white"/>
<stop offset="0.280403" stop-color="white" stop-opacity="0"/>
<stop offset="0.36579" stop-color="white" stop-opacity="0"/>
<stop offset="0.612214" stop-color="white"/>
<stop offset="1" stop-color="white" stop-opacity="0"/>
</linearGradient>
</defs>
</svg>
