<svg width="751" height="873" viewBox="0 0 751 873" fill="none" xmlns="http://www.w3.org/2000/svg">
<g style="mix-blend-mode:overlay">
<path d="M672.169 1251.19L230.645 965.828C188.03 938.286 162.295 891.009 162.295 840.269V327.223C162.295 276.687 187.825 229.572 230.162 201.978L507.458 21.2425C556.349 -10.6233 619.313 -11.1274 668.707 19.9515L679.953 27.0272C773.858 86.1123 772.954 223.298 678.277 281.139L603.597 326.764C558.25 354.468 530.874 404.033 531.572 457.169L539.741 1079.26C540.359 1126.25 562.889 1170.25 600.652 1198.22L672.169 1251.19ZM116.37 704.37C116.37 786.359 25.5791 835.797 -43.291 791.31C-72.8062 772.245 -90.6328 739.507 -90.6328 704.37V166.439C-90.6328 115.534 -64.7307 68.1277 -21.8925 40.6291L415.137 -239.909C489.473 -287.626 587.165 -234.249 587.165 -145.916C587.165 -108.016 567.946 -72.7023 536.119 -52.1235L185.152 174.812C142.267 202.542 116.37 250.126 116.37 301.194V704.37Z" stroke="url(#paint0_linear_74_1660)"/>
</g>
<defs>
<linearGradient id="paint0_linear_74_1660" x1="450.333" y1="390.319" x2="848.774" y2="488.304" gradientUnits="userSpaceOnUse">
<stop stop-color="white"/>
<stop offset="0.23224" stop-color="white" stop-opacity="0"/>
<stop offset="0.306772" stop-color="white" stop-opacity="0"/>
<stop offset="1" stop-color="white"/>
</linearGradient>
</defs>
</svg>
