<svg width="502" height="462" viewBox="0 0 502 462" fill="none" xmlns="http://www.w3.org/2000/svg">
<g opacity="0.6" filter="url(#filter0_bd_74_1657)">
<path d="M584.678 1066.33L313.464 891.046C270.707 863.411 244.885 815.977 244.885 765.067V489.052C244.885 438.347 270.501 391.074 312.98 363.388L467.112 262.928C500.217 241.35 542.852 241.009 576.299 262.054C639.886 302.062 639.273 394.956 575.164 434.123L544.597 452.797C507.402 475.521 484.948 516.175 485.521 559.758L490.289 922.82C490.904 969.653 513.36 1013.51 550.997 1041.39L584.678 1066.33ZM215.713 705.452C215.713 758.949 156.473 791.208 111.536 762.18C92.2772 749.74 80.6455 728.379 80.6455 705.452V384.883C80.6455 333.808 106.634 286.243 149.616 258.652L409.219 92.0081C457.705 60.8839 521.425 95.6997 521.425 153.316C521.425 178.036 508.89 201.07 488.131 214.493L284.266 346.312C241.524 373.949 215.713 421.375 215.713 472.274V705.452ZM893.917 445.266C848.855 474.421 789.402 442.075 789.402 388.404V336.445C789.402 303.874 772.886 273.524 745.535 255.837L686.271 217.514C665.404 204.02 652.803 180.865 652.803 156.015C652.803 97.9867 717.073 63.0067 765.804 94.5129L862.682 157.148C901.445 182.21 924.853 225.219 924.853 271.378V371.763V388.404C924.853 411.379 913.206 432.786 893.917 445.266Z" fill="white" fill-opacity="0.01" shape-rendering="crispEdges"/>
</g>
<defs>
<filter id="filter0_bd_74_1657" x="0.986061" y="0.685401" width="993.104" height="1134.89" filterUnits="userSpaceOnUse" color-interpolation-filters="sRGB">
<feFlood flood-opacity="0" result="BackgroundImageFix"/>
<feGaussianBlur in="BackgroundImageFix" stdDeviation="1.48896"/>
<feComposite in2="SourceAlpha" operator="in" result="effect1_backgroundBlur_74_1657"/>
<feColorMatrix in="SourceAlpha" type="matrix" values="0 0 0 0 0 0 0 0 0 0 0 0 0 0 0 0 0 0 127 0" result="hardAlpha"/>
<feOffset dx="-5.21137" dy="-5.21137"/>
<feGaussianBlur stdDeviation="37.224"/>
<feComposite in2="hardAlpha" operator="out"/>
<feColorMatrix type="matrix" values="0 0 0 0 0.00392157 0 0 0 0 0.0117647 0 0 0 0 0.0784314 0 0 0 0.32 0"/>
<feBlend mode="normal" in2="effect1_backgroundBlur_74_1657" result="effect2_dropShadow_74_1657"/>
<feBlend mode="normal" in="SourceGraphic" in2="effect2_dropShadow_74_1657" result="shape"/>
</filter>
</defs>
</svg>
