<svg width="502" height="655" viewBox="0 0 502 655" fill="none" xmlns="http://www.w3.org/2000/svg">
<g opacity="0.6" filter="url(#filter0_bd_74_1656)">
<path d="M584.678 1259.33L313.464 1084.05C270.707 1056.41 244.885 1008.98 244.885 958.067V682.052C244.885 631.347 270.501 584.074 312.98 556.388L467.112 455.928C500.217 434.35 542.852 434.009 576.299 455.054C639.886 495.062 639.273 587.956 575.164 627.123L544.597 645.797C507.402 668.521 484.948 709.175 485.521 752.758L490.289 1115.82C490.904 1162.65 513.36 1206.51 550.997 1234.39L584.678 1259.33ZM215.713 898.452C215.713 951.949 156.473 984.208 111.536 955.18C92.2772 942.74 80.6455 921.379 80.6455 898.452V577.883C80.6455 526.808 106.634 479.243 149.616 451.652L409.219 285.008C457.705 253.884 521.425 288.7 521.425 346.316C521.425 371.036 508.89 394.07 488.131 407.493L284.266 539.312C241.524 566.949 215.713 614.375 215.713 665.274V898.452ZM893.917 638.266C848.855 667.421 789.402 635.075 789.402 581.404V529.445C789.402 496.874 772.886 466.524 745.535 448.837L686.271 410.514C665.404 397.02 652.803 373.865 652.803 349.015C652.803 290.987 717.073 256.007 765.804 287.513L862.682 350.148C901.445 375.21 924.853 418.219 924.853 464.378V564.763V581.404C924.853 604.379 913.206 625.786 893.917 638.266Z" fill="white" fill-opacity="0.01" shape-rendering="crispEdges"/>
</g>
<g style="mix-blend-mode:overlay">
<path d="M575.072 1252.68L313.666 1083.73C271.015 1056.17 245.257 1008.85 245.257 958.067V682.052C245.257 631.473 270.81 584.317 313.183 556.699L467.315 456.24C500.299 434.742 542.777 434.402 576.101 455.369C639.454 495.23 638.844 587.782 574.97 626.805L544.403 645.48C507.096 668.272 484.574 709.048 485.148 752.762L489.916 1115.83C490.533 1162.77 513.045 1206.74 550.776 1234.69L575.072 1252.68ZM215.341 898.452C215.341 951.655 156.427 983.735 111.738 954.868C92.5854 942.496 81.0177 921.253 81.0177 898.452V577.883C81.0177 526.935 106.942 479.488 149.817 451.966L409.42 285.321C457.658 254.356 521.053 288.994 521.053 346.316C521.053 370.91 508.581 393.826 487.929 407.18L284.064 539C241.216 566.705 215.341 614.249 215.341 665.274V898.452ZM893.715 637.954C848.9 666.948 789.775 634.78 789.775 581.404V529.445C789.775 496.747 773.194 466.28 745.737 448.525L686.474 410.202C665.712 396.776 653.175 373.739 653.175 349.015C653.175 291.282 717.119 256.479 765.602 287.826L862.48 350.461C901.136 375.454 924.481 418.346 924.481 464.378V564.763V581.404C924.481 604.252 912.898 625.542 893.715 637.954Z" stroke="url(#paint0_linear_74_1656)" stroke-width="0.744481"/>
</g>
<defs>
<filter id="filter0_bd_74_1656" x="0.986061" y="193.685" width="993.104" height="1134.89" filterUnits="userSpaceOnUse" color-interpolation-filters="sRGB">
<feFlood flood-opacity="0" result="BackgroundImageFix"/>
<feGaussianBlur in="BackgroundImageFix" stdDeviation="1.48896"/>
<feComposite in2="SourceAlpha" operator="in" result="effect1_backgroundBlur_74_1656"/>
<feColorMatrix in="SourceAlpha" type="matrix" values="0 0 0 0 0 0 0 0 0 0 0 0 0 0 0 0 0 0 127 0" result="hardAlpha"/>
<feOffset dx="-5.21137" dy="-5.21137"/>
<feGaussianBlur stdDeviation="37.224"/>
<feComposite in2="hardAlpha" operator="out"/>
<feColorMatrix type="matrix" values="0 0 0 0 0.00392157 0 0 0 0 0.0117647 0 0 0 0 0.0784314 0 0 0 0.32 0"/>
<feBlend mode="normal" in2="effect1_backgroundBlur_74_1656" result="effect2_dropShadow_74_1656"/>
<feBlend mode="normal" in="SourceGraphic" in2="effect2_dropShadow_74_1656" result="shape"/>
</filter>
<linearGradient id="paint0_linear_74_1656" x1="472.092" y1="603.881" x2="451.33" y2="329.212" gradientUnits="userSpaceOnUse">
<stop stop-color="white" stop-opacity="0.48"/>
<stop offset="1" stop-color="white"/>
</linearGradient>
</defs>
</svg>
