<svg width="236" height="239" viewBox="0 0 236 239" fill="none" xmlns="http://www.w3.org/2000/svg">
<g style="mix-blend-mode:soft-light">
<path d="M207.332 124.237C221.279 124.237 232.718 135.099 233.64 148.815V150.605V151.205C233.64 165.754 221.82 177.573 207.272 177.573C190.514 177.573 176.904 191.183 176.904 207.941V210.639C176.904 225.188 165.085 237.007 150.536 237.007H88.1024C73.5537 237.007 61.7345 225.188 61.7345 210.639V207.941C61.7345 191.183 48.1245 177.573 31.3666 177.573H28.6677C14.119 177.573 2.2998 165.754 2.2998 151.205V88.7714C2.2998 74.2226 14.119 62.4034 28.6677 62.4034H31.3666C48.1245 62.4034 61.7345 48.7934 61.7345 32.0355V29.3367C61.7345 14.7879 73.5537 2.96875 88.1024 2.96875H180.103C194.652 2.96875 206.471 14.7879 206.471 29.3367V32.3354C206.471 46.8842 194.652 58.7033 180.103 58.7033H88.4623C71.7044 58.7033 58.0943 72.3133 58.0943 89.0712V150.845C58.0943 167.603 71.7044 181.213 88.4623 181.213H150.236C166.994 181.213 180.604 167.603 180.604 150.845V150.605C180.604 136.056 192.423 124.237 206.972 124.237H207.332Z" fill="white"/>
<path d="M207.332 124.237C221.279 124.237 232.718 135.099 233.64 148.815V150.605V151.205C233.64 165.754 221.82 177.573 207.272 177.573C190.514 177.573 176.904 191.183 176.904 207.941V210.639C176.904 225.188 165.085 237.007 150.536 237.007H88.1024C73.5537 237.007 61.7345 225.188 61.7345 210.639V207.941C61.7345 191.183 48.1245 177.573 31.3666 177.573H28.6677C14.119 177.573 2.2998 165.754 2.2998 151.205V88.7714C2.2998 74.2226 14.119 62.4034 28.6677 62.4034H31.3666C48.1245 62.4034 61.7345 48.7934 61.7345 32.0355V29.3367C61.7345 14.7879 73.5537 2.96875 88.1024 2.96875H180.103C194.652 2.96875 206.471 14.7879 206.471 29.3367V32.3354C206.471 46.8842 194.652 58.7033 180.103 58.7033H88.4623C71.7044 58.7033 58.0943 72.3133 58.0943 89.0712V150.845C58.0943 167.603 71.7044 181.213 88.4623 181.213H150.236C166.994 181.213 180.604 167.603 180.604 150.845V150.605C180.604 136.056 192.423 124.237 206.972 124.237H207.332Z" stroke="white" stroke-width="4"/>
</g>
</svg>
