<svg width="751" height="873" viewBox="0 0 751 873" fill="none" xmlns="http://www.w3.org/2000/svg">
<g style="mix-blend-mode:overlay" opacity="0.32">
<path d="M685.072 1260.12L230.373 966.248C187.616 938.613 161.795 891.179 161.795 840.269V327.223C161.795 276.518 187.411 229.246 229.889 201.559L507.185 20.8236C556.24 -11.1487 619.414 -11.6545 668.973 19.5283L680.219 26.604C774.439 85.8867 773.531 223.531 678.538 281.566L603.858 327.191C558.661 354.803 531.376 404.203 532.072 457.163L540.241 1079.25C540.856 1126.08 563.312 1169.94 600.95 1197.82L685.072 1260.12ZM116.87 704.37C116.87 786.755 25.6405 836.432 -43.5623 791.73C-73.22 772.573 -91.1328 739.677 -91.1328 704.37V166.439C-91.1328 115.364 -65.1441 67.799 -22.1626 40.2083L414.867 -240.329C489.536 -288.26 587.665 -234.645 587.665 -145.916C587.665 -107.847 568.36 -72.3746 536.391 -51.7037L185.423 175.232C142.681 202.869 116.87 250.295 116.87 301.194V704.37Z" fill="url(#paint0_linear_74_1661)"/>
</g>
<defs>
<linearGradient id="paint0_linear_74_1661" x1="239.222" y1="508.535" x2="1322.48" y2="486.191" gradientUnits="userSpaceOnUse">
<stop stop-color="white"/>
<stop offset="0.280403" stop-color="white" stop-opacity="0"/>
<stop offset="0.36579" stop-color="white" stop-opacity="0"/>
<stop offset="0.612214" stop-color="white"/>
<stop offset="1" stop-color="white" stop-opacity="0"/>
</linearGradient>
</defs>
</svg>
