<svg width="1440" height="2103" viewBox="0 0 1440 2103" fill="none" xmlns="http://www.w3.org/2000/svg">
<g style="mix-blend-mode:soft-light">
<path d="M-475 1248.08L1194.4 2211.9M-462.586 1226.57L1206.81 2190.4M-450.173 1205.07L1219.23 2168.9M-437.76 1183.57L1231.64 2147.4M-425.345 1162.07L1244.05 2125.9M-412.93 1140.57L1256.47 2104.4M-400.518 1119.07L1268.88 2082.9M-388.103 1097.57L1281.3 2061.4M-375.69 1076.07L1293.71 2039.89M-363.275 1054.57L1306.12 2018.39M-350.863 1033.06L1318.54 1996.89M-338.449 1011.56L1330.95 1975.39M-326.035 990.061L1343.36 1953.89M-313.622 968.56L1355.78 1932.39M-301.208 947.059L1368.19 1910.89M-288.792 925.557L1380.61 1889.38M-276.379 904.056L1393.02 1867.88M-263.965 882.555L1405.43 1846.38M-251.552 861.053L1417.85 1824.88M-239.138 839.552L1430.26 1803.38M-226.725 818.05L1442.67 1781.88M-214.311 796.549L1455.09 1760.38M-201.897 775.048L1467.5 1738.88M-189.482 753.546L1479.92 1717.37M-177.07 732.045L1492.33 1695.87M-164.656 710.544L1504.74 1674.37M-152.241 689.042L1517.16 1652.87M-139.827 667.541L1529.57 1631.37M-127.414 646.039L1541.98 1609.87M-115 624.538L1554.4 1588.37M-102.586 603.037L1566.81 1566.87M-90.1733 581.535L1579.23 1545.36M-77.7597 560.034L1591.64 1523.86M-65.3446 538.533L1604.05 1502.36M-52.9297 517.031L1616.47 1480.86M-40.5179 495.53L1628.88 1459.36M-28.103 474.029L1641.3 1437.86M-15.6895 452.527L1653.71 1416.36M-3.27527 431.026L1666.12 1394.85M9.13745 409.524L1678.54 1373.35M21.5512 388.023L1690.95 1351.85M33.9663 366.522L1703.37 1330.35M46.3792 345.022L1715.78 1308.85M58.793 323.521L1728.19 1287.35M71.2079 302.019L1740.61 1265.85M83.6215 280.518L1753.02 1244.34M96.0346 259.016L1765.43 1222.84M108.448 237.515L1777.85 1201.34M120.862 216.014L1790.26 1179.84M133.275 194.512L1802.67 1158.34M145.689 173.011L1815.09 1136.84M158.103 151.51L1827.5 1115.34M170.518 130.008L1839.92 1093.84M182.93 108.507L1852.33 1072.33M195.344 87.0055L1864.74 1050.83M207.759 65.5042L1877.16 1029.33M220.173 44.0027L1889.57 1007.83M232.586 22.5012L1901.98 986.33M245 1L1914.4 964.828M1914.4 1248.08L245 2211.9M1901.98 1226.57L232.586 2190.4M1889.57 1205.07L220.173 2168.9M1877.16 1183.57L207.759 2147.4M1864.74 1162.07L195.344 2125.9M1852.33 1140.57L182.93 2104.4M1839.92 1119.07L170.518 2082.9M1827.5 1097.57L158.103 2061.4M1815.09 1076.07L145.689 2039.89M1802.67 1054.57L133.275 2018.39M1790.26 1033.06L120.862 1996.89M1777.85 1011.56L108.448 1975.39M1765.43 990.061L96.0346 1953.89M1753.02 968.56L83.6215 1932.39M1740.61 947.059L71.2079 1910.89M1728.19 925.557L58.793 1889.38M1715.78 904.056L46.3792 1867.88M1703.37 882.555L33.9663 1846.38M1690.95 861.053L21.5512 1824.88M1678.54 839.552L9.13745 1803.38M1666.12 818.05L-3.27527 1781.88M1653.71 796.549L-15.6895 1760.38M1641.3 775.048L-28.103 1738.88M1628.88 753.546L-40.5179 1717.37M1616.47 732.045L-52.9297 1695.87M1604.05 710.544L-65.3446 1674.37M1591.64 689.042L-77.7597 1652.87M1579.23 667.541L-90.1733 1631.37M1566.81 646.039L-102.586 1609.87M1554.4 624.538L-115 1588.37M1541.98 603.037L-127.414 1566.87M1529.57 581.535L-139.827 1545.36M1517.16 560.034L-152.241 1523.86M1504.74 538.533L-164.656 1502.36M1492.33 517.031L-177.07 1480.86M1479.92 495.53L-189.482 1459.36M1467.5 474.029L-201.897 1437.86M1455.09 452.527L-214.311 1416.36M1442.67 431.026L-226.725 1394.85M1430.26 409.524L-239.138 1373.35M1417.85 388.023L-251.552 1351.85M1405.43 366.522L-263.965 1330.35M1393.02 345.022L-276.379 1308.85M1380.61 323.521L-288.792 1287.35M1368.19 302.019L-301.208 1265.85M1355.78 280.518L-313.622 1244.34M1343.36 259.016L-326.035 1222.84M1330.95 237.515L-338.449 1201.34M1318.54 216.014L-350.863 1179.84M1306.12 194.512L-363.275 1158.34M1293.71 173.011L-375.69 1136.84M1281.3 151.51L-388.103 1115.34M1268.88 130.008L-400.518 1093.84M1256.47 108.507L-412.93 1072.33M1244.05 87.0055L-425.345 1050.83M1231.64 65.5041L-437.76 1029.33M1219.23 44.0027L-450.173 1007.83M1206.81 22.5012L-462.586 986.33M1194.4 1L-475 964.828" stroke="url(#paint0_radial_74_3)" stroke-width="1.80822" stroke-linecap="round" stroke-linejoin="round"/>
</g>
<defs>
<radialGradient id="paint0_radial_74_3" cx="0" cy="0" r="1" gradientUnits="userSpaceOnUse" gradientTransform="translate(719.695 949) rotate(90) scale(427.5 823.169)">
<stop stop-color="white"/>
<stop offset="1" stop-color="white" stop-opacity="0"/>
</radialGradient>
</defs>
</svg>
