 <svg xmlns="http://www.w3.org/2000/svg" width="148" height="148" viewBox="0 0 148 148" fill="none">
  <rect y="0.0136719" width="148" height="148" fill="url(#paint0_linear_74_1769)"/>
  <circle cx="77.6075" cy="73.2117" r="29.9151" fill="url(#paint1_linear_74_1769)" fill-opacity="0.45" stroke="#8460EA"/>
  <g style="mix-blend-mode:overlay">
    <path d="M91.6089 76.8556V76.9269C91.6089 78.7899 90.0957 80.3032 88.2327 80.3032C86.3696 80.3032 84.8564 81.8164 84.8564 83.6794V84.0006C84.8564 85.8636 83.3432 87.3769 81.4802 87.3769H74.0496C72.1866 87.3769 70.6733 85.8636 70.6733 84.0006V83.6794C70.6733 81.8164 69.1601 80.3032 67.2971 80.3032H66.9759C65.1129 80.3032 63.5996 78.7899 63.5996 76.9269V69.4963C63.5996 67.6333 65.1129 66.1201 66.9759 66.1201H67.2971C69.1601 66.1201 70.6733 64.6068 70.6733 62.7438V62.4226C70.6733 60.5596 72.1866 59.0464 74.0496 59.0464H84.9992C86.8622 59.0464 88.3754 60.5596 88.3754 62.4226V62.7795C88.3754 64.6425 86.8622 66.1558 84.9992 66.1558H74.0924C72.2294 66.1558 70.7161 67.669 70.7161 69.532V76.8841C70.7161 78.7471 72.2294 80.2603 74.0924 80.2603H81.4445C83.3075 80.2603 84.8207 78.7471 84.8207 76.8841V76.8556C84.8207 74.9925 86.334 73.4793 88.197 73.4793H88.2398C90.1028 73.4793 91.616 74.9925 91.616 76.8556H91.6089Z" fill="white"/>
  </g>
  <defs>
    <linearGradient id="paint0_linear_74_1769" x1="74" y1="0.0136719" x2="74" y2="148.014" gradientUnits="userSpaceOnUse">
      <stop stop-color="#6C38FF" stop-opacity="0.3"/>
      <stop offset="1" stop-color="#8B62FF" stop-opacity="0.3"/>
    </linearGradient>
    <linearGradient id="paint1_linear_74_1769" x1="77.6079" y1="42.7966" x2="77.6079" y2="103.627" gradientUnits="userSpaceOnUse">
      <stop stop-color="#6C38FF"/>
      <stop offset="1" stop-color="#B59AFF"/>
    </linearGradient>
  </defs>
</svg>
