<svg width="26" height="26" viewBox="0 0 26 26" fill="none" xmlns="http://www.w3.org/2000/svg">
<path d="M13.0005 0.399414C6.09684 0.399414 0.500488 5.99577 0.500488 12.8994C0.500488 19.8031 6.09684 25.3994 13.0005 25.3994C19.9041 25.3994 25.5005 19.8031 25.5005 12.8994C25.5005 5.99577 19.9041 0.399414 13.0005 0.399414ZM9.94059 18.0804H7.40934V9.93457H9.94059V18.0804ZM8.65934 8.93457C7.85986 8.93457 7.34294 8.36816 7.34294 7.66764C7.34294 6.9528 7.87549 6.40332 8.69189 6.40332C9.5083 6.40332 10.0083 6.9528 10.0239 7.66764C10.0239 8.36816 9.5083 8.93457 8.65934 8.93457ZM19.1854 18.0804H16.6541V13.5661C16.6541 12.5153 16.2869 11.8018 15.3716 11.8018C14.6724 11.8018 14.257 12.2848 14.0734 12.7497C14.0057 12.915 13.9888 13.1494 13.9888 13.3825V18.0791H11.4562V12.5322C11.4562 11.5153 11.4237 10.665 11.3898 9.93327H13.589L13.7049 11.0648H13.7557C14.089 10.5335 14.9054 9.74967 16.2713 9.74967C17.9367 9.74967 19.1854 10.8656 19.1854 13.264V18.0804Z" fill="white"/>
</svg>

