<svg width="26" height="26" viewBox="0 0 26 26" fill="none" xmlns="http://www.w3.org/2000/svg">
<path d="M13 0.399414C6.0971 0.399414 0.5 5.99651 0.5 12.8994C0.5 19.8023 6.0971 25.3994 13 25.3994C19.9029 25.3994 25.5 19.8023 25.5 12.8994C25.5 5.99651 19.9029 0.399414 13 0.399414ZM19.0073 9.82185C19.0156 9.95299 19.0156 10.0897 19.0156 10.2236C19.0156 14.3196 15.8962 19.0378 10.1959 19.0378C8.43807 19.0378 6.8086 18.5272 5.43583 17.6483C5.68695 17.6762 5.9269 17.6874 6.1836 17.6874C7.63449 17.6874 8.9682 17.1963 10.0313 16.3648C8.66965 16.3369 7.52568 15.4441 7.13505 14.2164C7.61217 14.2861 8.04186 14.2861 8.53293 14.1606C7.83183 14.0181 7.20167 13.6374 6.74949 13.083C6.29732 12.5286 6.05103 11.8347 6.05246 11.1193V11.0802C6.46262 11.3118 6.94532 11.4541 7.45034 11.4736C7.02579 11.1907 6.67762 10.8074 6.4367 10.3576C6.19578 9.90792 6.06955 9.4057 6.0692 8.89551C6.0692 8.31794 6.21987 7.7906 6.49052 7.33301C7.26871 8.29098 8.23977 9.07448 9.34059 9.63258C10.4414 10.1907 11.6474 10.5109 12.88 10.5724C12.442 8.46582 14.0156 6.76102 15.9074 6.76102C16.8002 6.76102 17.6038 7.13491 18.1702 7.73758C18.8706 7.60645 19.5402 7.34417 20.1373 6.99261C19.9057 7.70968 19.4202 8.31515 18.7757 8.6974C19.4007 8.63044 20.0034 8.45745 20.5614 8.2147C20.1401 8.83412 19.6127 9.38379 19.0073 9.82185Z" fill="white"/>
</svg>
