<svg width="12" height="12" viewBox="0 0 12 12" fill="none" xmlns="http://www.w3.org/2000/svg">
<path d="M12.0025 6C12.0038 6.20378 11.9419 6.40294 11.8252 6.57009C11.7086 6.73723 11.543 6.86414 11.3513 6.93335L8.12754 8.1241L6.94004 11.349C6.86972 11.5399 6.74249 11.7048 6.57552 11.8212C6.40854 11.9376 6.20987 12 6.00629 12C5.80271 12 5.60404 11.9376 5.43707 11.8212C5.27009 11.7048 5.14286 11.5399 5.07254 11.349L3.87754 8.1241L0.651291 6.9371C0.460247 6.86681 0.29537 6.73963 0.178907 6.57273C0.0624441 6.40583 0 6.20724 0 6.00375C0 5.80026 0.0624441 5.60167 0.178907 5.43476C0.29537 5.26786 0.460247 5.14069 0.651291 5.07039L3.87754 3.8759L5.06504 0.651015C5.13536 0.460052 5.26259 0.295245 5.42957 0.178831C5.59654 0.0624176 5.79522 0 5.99879 0C6.20237 0 6.40104 0.0624176 6.56802 0.178831C6.73499 0.295245 6.86222 0.460052 6.93254 0.651015L8.12754 3.8759L11.3538 5.0629C11.5457 5.13274 11.7111 5.2604 11.8274 5.42825C11.9436 5.59611 12.0048 5.79588 12.0025 6Z" fill="white"/>
</svg>
