<svg width="16" height="16" viewBox="0 0 16 16" fill="none" xmlns="http://www.w3.org/2000/svg">
<g clip-path="url(#clip0_972_5629)">
<path d="M14.4346 13.7497C14.3907 13.8258 14.3275 13.8889 14.2515 13.9328C14.1755 13.9767 14.0892 13.9998 14.0014 13.9997H2.00144C1.91372 13.9997 1.82756 13.9765 1.75162 13.9326C1.67568 13.8886 1.61264 13.8255 1.56881 13.7495C1.52499 13.6735 1.50193 13.5873 1.50195 13.4996C1.50198 13.4119 1.52508 13.3257 1.56894 13.2497C2.52082 11.6041 3.98769 10.4241 5.69957 9.86475C4.8528 9.36066 4.19491 8.59255 3.82693 7.67837C3.45896 6.76419 3.40124 5.7545 3.66265 4.80435C3.92406 3.85419 4.49014 3.01612 5.27396 2.41883C6.05777 1.82153 7.01598 1.49805 8.00144 1.49805C8.9869 1.49805 9.94511 1.82153 10.7289 2.41883C11.5127 3.01612 12.0788 3.85419 12.3402 4.80435C12.6016 5.7545 12.5439 6.76419 12.1759 7.67837C11.808 8.59255 11.1501 9.36066 10.3033 9.86475C12.0152 10.4241 13.4821 11.6041 14.4339 13.2497C14.4779 13.3257 14.5011 13.4119 14.5012 13.4997C14.5014 13.5874 14.4784 13.6737 14.4346 13.7497Z" fill="white"/>
</g>
<defs>
<clipPath id="clip0_972_5629">
<rect width="16" height="16" fill="white"/>
</clipPath>
</defs>
</svg>
