<svg width="20" height="20" viewBox="0 0 20 20" fill="none" xmlns="http://www.w3.org/2000/svg">
<path d="M16.873 5H4.37305C4.20729 5 4.04832 4.93415 3.93111 4.81694C3.81389 4.69973 3.74805 4.54076 3.74805 4.375C3.74805 4.20924 3.81389 4.05027 3.93111 3.93306C4.04832 3.81585 4.20729 3.75 4.37305 3.75H14.998C15.1638 3.75 15.3228 3.68415 15.44 3.56694C15.5572 3.44973 15.623 3.29076 15.623 3.125C15.623 2.95924 15.5572 2.80027 15.44 2.68306C15.3228 2.56585 15.1638 2.5 14.998 2.5H4.37305C3.87577 2.5 3.39885 2.69754 3.04722 3.04917C2.69559 3.40081 2.49805 3.87772 2.49805 4.375V14.375C2.49805 14.8723 2.69559 15.3492 3.04722 15.7008C3.39885 16.0525 3.87577 16.25 4.37305 16.25H16.873C17.2046 16.25 17.5225 16.1183 17.7569 15.8839C17.9914 15.6495 18.123 15.3315 18.123 15V6.25C18.123 5.91848 17.9914 5.60054 17.7569 5.36612C17.5225 5.1317 17.2046 5 16.873 5ZM16.873 15H4.37305C4.20729 15 4.04832 14.9342 3.93111 14.8169C3.81389 14.6997 3.74805 14.5408 3.74805 14.375V6.14297C3.94873 6.21411 4.16013 6.25031 4.37305 6.25H16.873V15ZM13.123 10.3125C13.123 10.1271 13.178 9.94582 13.281 9.79165C13.3841 9.63748 13.5305 9.51732 13.7018 9.44636C13.8731 9.37541 14.0616 9.35684 14.2434 9.39301C14.4253 9.42919 14.5923 9.51848 14.7235 9.64959C14.8546 9.7807 14.9439 9.94775 14.98 10.1296C15.0162 10.3115 14.9976 10.5 14.9267 10.6713C14.8557 10.8426 14.7356 10.989 14.5814 11.092C14.4272 11.195 14.246 11.25 14.0605 11.25C13.8119 11.25 13.5735 11.1512 13.3976 10.9754C13.2218 10.7996 13.123 10.5611 13.123 10.3125Z" fill="#9A8FFF"/>
</svg>
